<svg width="41" height="51" viewBox="0 0 41 51" fill="none" xmlns="http://www.w3.org/2000/svg">
<path fill-rule="evenodd" clip-rule="evenodd" d="M30.3113 18.0242H28.0529C27.9149 17.5866 27.7395 17.1628 27.5279 16.7562L29.1247 15.1593C29.3243 14.9597 29.4342 14.6943 29.4342 14.4121C29.4342 14.1297 29.3243 13.8643 29.1247 13.6648L27.2454 11.7853C26.8334 11.3736 26.163 11.3734 25.7509 11.7854L24.1539 13.3824C23.7474 13.1707 23.3235 12.9952 22.8859 12.8574V10.5988C22.8858 10.0162 22.4117 9.54199 21.829 9.54199H19.1711C18.5884 9.54199 18.1144 10.0161 18.1144 10.5988V12.8574C17.6767 12.9953 17.2529 13.1707 16.8462 13.3824L15.2492 11.7853C14.8372 11.3735 14.1668 11.3736 13.7548 11.7854L11.8756 13.6647C11.6759 13.8642 11.5659 14.1296 11.5659 14.412C11.5659 14.6942 11.6759 14.9596 11.8754 15.1592L13.4724 16.7561C13.2607 17.1627 13.0852 17.5866 12.9474 18.0241H10.6888C10.1062 18.0241 9.63208 18.4982 9.63208 19.081V21.7388C9.63208 22.3215 10.1062 22.7956 10.6888 22.7956H12.9474C13.0853 23.2332 13.2607 23.6571 13.4724 24.0636L11.8754 25.6606C11.4634 26.0726 11.4634 26.743 11.8754 27.1551L13.7548 29.0344C14.1668 29.4465 14.8374 29.4465 15.2493 29.0344L16.8462 27.4375C17.2528 27.6492 17.6768 27.8247 18.1144 27.9625V30.221C18.1144 30.8037 18.5884 31.2778 19.1711 31.2778H21.829C22.4116 31.2778 22.8858 30.8037 22.8858 30.221V27.9625C23.3233 27.8247 23.7473 27.6492 24.1538 27.4375L25.7508 29.0344C26.1629 29.4465 26.8334 29.4465 27.2454 29.0344L29.1246 27.1551C29.3242 26.9555 29.434 26.6902 29.434 26.4079C29.434 26.1256 29.3242 25.8602 29.1246 25.6606L27.5277 24.0636C27.7394 23.6571 27.9149 23.2332 28.0527 22.7956H30.3112C30.8939 22.7956 31.3681 22.3215 31.3681 21.7388V19.081C31.3681 18.4983 30.894 18.0242 30.3113 18.0242ZM29.8768 21.3041H27.4846C27.1382 21.3041 26.8374 21.5427 26.7585 21.88C26.5995 22.5596 26.3326 23.2042 25.9652 23.7958C25.7824 24.0901 25.8264 24.4715 26.0713 24.7166L27.7627 26.408L26.4982 27.6725L24.8068 25.9811C24.5618 25.7361 24.1804 25.692 23.8859 25.8749C23.2942 26.2423 22.6496 26.5092 21.9702 26.6683C21.6329 26.7471 21.3944 27.0479 21.3944 27.3944V29.7867H19.6061V27.3944C19.6061 27.048 19.3676 26.7472 19.0302 26.6683C18.3508 26.5094 17.7062 26.2425 17.1145 25.8749C16.8203 25.6924 16.4388 25.7361 16.1937 25.9811L14.5023 27.6725L13.2377 26.408L14.9291 24.7166C15.1741 24.4716 15.2181 24.0902 15.0353 23.7958C14.6679 23.2041 14.4011 22.5595 14.2421 21.88C14.1632 21.5427 13.8623 21.3041 13.5159 21.3041H11.1237V19.5159H13.5159C13.8623 19.5159 14.1631 19.2774 14.2421 18.94C14.4011 18.2605 14.6679 17.6159 15.0353 17.0243C15.2181 16.73 15.1741 16.3485 14.9291 16.1035L13.2377 14.4121L14.5023 13.1475L16.1937 14.8389C16.4385 15.0839 16.8201 15.128 17.1145 14.9451C17.706 14.5777 18.3506 14.3108 19.0302 14.1519C19.3676 14.073 19.6061 13.7722 19.6061 13.4257V11.0334H21.3944V13.4257C21.3944 13.7721 21.6329 14.0729 21.9702 14.1519C22.6497 14.3108 23.2943 14.5777 23.886 14.9451C24.1801 15.1278 24.5617 15.0837 24.8068 14.8389L26.4982 13.1475L27.7627 14.4121L26.0713 16.1035C25.8263 16.3485 25.7824 16.7299 25.9652 17.0243C26.3326 17.6157 26.5994 18.2603 26.7585 18.94C26.8374 19.2774 27.1381 19.5159 27.4846 19.5159H29.8768V21.3041Z" fill="white"/>
<path fill-rule="evenodd" clip-rule="evenodd" d="M20.5 16.4148C18.297 16.4148 16.5049 18.207 16.5049 20.4099C16.5049 22.6127 18.2971 24.405 20.5 24.405C22.7028 24.405 24.4951 22.6127 24.4951 20.4099C24.4951 18.207 22.7029 16.4148 20.5 16.4148ZM20.5 22.9135C19.1195 22.9135 17.9963 21.7904 17.9963 20.4099C17.9963 19.0294 19.1195 17.9062 20.5 17.9062C21.8805 17.9062 23.0036 19.0294 23.0036 20.4099C23.0036 21.7904 21.8805 22.9135 20.5 22.9135Z" fill="white"/>
<path fill-rule="evenodd" clip-rule="evenodd" d="M3.35572 19.6638H0.881706C0.469876 19.6638 0.135986 19.9977 0.135986 20.4095C0.135986 20.8214 0.469876 21.1553 0.881706 21.1553H3.35572C3.76756 21.1553 4.10145 20.8214 4.10145 20.4095C4.10145 19.9977 3.76756 19.6638 3.35572 19.6638Z" fill="white"/>
<path fill-rule="evenodd" clip-rule="evenodd" d="M40.1187 19.6638H37.6447C37.2327 19.6638 36.8989 19.9977 36.8989 20.4095C36.8989 20.8214 37.2327 21.1553 37.6447 21.1553H40.1187C40.5306 21.1553 40.8644 20.8214 40.8644 20.4095C40.8644 19.9977 40.5305 19.6638 40.1187 19.6638Z" fill="white"/>
<path fill-rule="evenodd" clip-rule="evenodd" d="M8.90452 32.0053C8.61341 31.7141 8.14121 31.7141 7.84987 32.0053L6.1005 33.7546C5.80927 34.0459 5.80927 34.5181 6.1005 34.8093C6.39173 35.1006 6.86392 35.1006 7.15516 34.8093L8.90452 33.0599C9.19576 32.7687 9.19576 32.2965 8.90452 32.0053Z" fill="white"/>
<path fill-rule="evenodd" clip-rule="evenodd" d="M34.8995 6.01041C34.6082 5.71918 34.1361 5.71918 33.8447 6.01041L32.0954 7.75978C31.8041 8.05101 31.8041 8.5232 32.0954 8.81444C32.3867 9.10567 32.8588 9.10557 33.1501 8.81444L34.8995 7.06507C35.1907 6.77374 35.1907 6.30155 34.8995 6.01042V6.01041Z" fill="white"/>
<path fill-rule="evenodd" clip-rule="evenodd" d="M20.4996 0.0458984C20.0877 0.0458984 19.7539 0.379788 19.7539 0.791618V3.26563C19.7539 3.67747 20.0877 4.01135 20.4996 4.01135C20.9116 4.01135 21.2454 3.67746 21.2454 3.26563V0.791618C21.2454 0.379778 20.9116 0.0458984 20.4996 0.0458984Z" fill="white"/>
<path fill-rule="evenodd" clip-rule="evenodd" d="M34.8995 33.7547L33.1501 32.0053C32.8588 31.7141 32.3867 31.7141 32.0954 32.0053C31.8041 32.2965 31.8041 32.7688 32.0954 33.06L33.8447 34.8093C34.1361 35.1006 34.6082 35.1006 34.8995 34.8093C35.1907 34.5181 35.1907 34.0459 34.8995 33.7547Z" fill="white"/>
<path fill-rule="evenodd" clip-rule="evenodd" d="M8.90452 7.75978L7.15515 6.01041C6.86392 5.71918 6.39173 5.71918 6.1005 6.01041C5.80927 6.30164 5.80927 6.77383 6.1005 7.06506L7.84987 8.81443C8.14111 9.10566 8.61329 9.10566 8.90452 8.81443C9.19576 8.5231 9.19576 8.0509 8.90452 7.75977V7.75978Z" fill="white"/>
<path fill-rule="evenodd" clip-rule="evenodd" d="M35.3773 18.5828C34.5747 11.7345 29.1462 6.30546 22.3301 5.47462C21.9219 5.42441 21.5494 5.71584 21.4995 6.12459C21.4496 6.53344 21.7407 6.90531 22.1495 6.95523C28.3397 7.70971 33.17 12.5626 33.8958 18.7564C33.9402 19.1359 34.2624 19.4153 34.6354 19.4153C34.6644 19.4153 34.6937 19.4136 34.7232 19.4102C35.1324 19.3624 35.4252 18.9919 35.3773 18.5828L35.3773 18.5828Z" fill="white"/>
<path fill-rule="evenodd" clip-rule="evenodd" d="M34.7151 21.4098C34.3059 21.3577 33.9333 21.6473 33.8816 22.056C33.3732 26.0717 31.1066 29.6151 27.663 31.7772C26.1784 32.7094 25.2922 34.3046 25.2922 36.0445V39.1136H15.7088V35.9765C15.7088 34.2918 14.8284 32.7001 13.4112 31.8229C9.40358 29.3421 7.01089 25.051 7.01079 20.3441C7.01079 13.5479 12.1014 7.79225 18.852 6.95604C19.2607 6.90543 19.551 6.53296 19.5004 6.12421C19.4498 5.71555 19.0775 5.42453 18.6686 5.47583C11.2098 6.39983 5.51894 12.8141 5.51904 20.3441C5.51904 22.9425 6.19487 25.5026 7.47365 27.7477C8.71324 29.9243 10.4949 31.7719 12.6259 33.091C13.6074 33.6985 14.217 34.8042 14.217 35.9764V39.2221C13.4587 39.4856 12.912 40.2057 12.912 41.0525V42.1156C12.912 42.5658 13.0675 42.9795 13.3257 43.3089C13.0674 43.6383 12.912 44.0519 12.912 44.5022V45.5652C12.912 46.6343 13.7819 47.5041 14.8509 47.5041H17.1955V49.19C17.1955 50.1625 17.9867 50.9537 18.9591 50.9537H22.0411C23.0136 50.9537 23.8047 50.1625 23.8047 49.19V47.5041H26.1493C27.2184 47.5041 28.0883 46.6342 28.0883 45.5652V44.5022C28.0883 44.052 27.9327 43.6383 27.6744 43.3089C27.9327 42.9795 28.0883 42.5659 28.0883 42.1156V41.0525C28.0883 40.2056 27.5416 39.4856 26.7832 39.2221V36.0444C26.7832 34.8209 27.4083 33.6979 28.4556 33.0404C32.2791 30.6397 34.7961 26.7043 35.3608 22.2433C35.4129 21.8346 35.1237 21.4615 34.7152 21.4098L34.7151 21.4098ZM22.3135 49.1899C22.3135 49.3373 22.1889 49.462 22.0414 49.462H18.9594C18.8119 49.462 18.6874 49.3374 18.6874 49.1899V47.504H22.3135L22.3135 49.1899ZM26.5971 45.5651C26.5971 45.8076 26.3922 46.0125 26.1497 46.0125C24.8332 46.0125 16.0935 46.0125 14.8512 46.0125C14.6087 46.0125 14.4038 45.8076 14.4038 45.5651V44.5021C14.4038 44.2596 14.6087 44.0546 14.8512 44.0546H26.1497C26.3922 44.0546 26.5971 44.2596 26.5971 44.5021V45.5651ZM26.5971 42.1156C26.5971 42.3581 26.3922 42.563 26.1497 42.563H14.8513C14.6087 42.563 14.4038 42.3581 14.4038 42.1156V41.0525C14.4038 40.8099 14.6087 40.605 14.8513 40.605H26.1497C26.3922 40.605 26.5971 40.8099 26.5971 41.0525V42.1156Z" fill="white"/>
</svg>
