<svg width="49" height="48" viewBox="0 0 49 48" fill="none" xmlns="http://www.w3.org/2000/svg">
<path fill-rule="evenodd" clip-rule="evenodd" d="M48.3418 20.6007L40.2951 10.1478C39.9972 9.76119 39.454 9.66583 39.0421 9.92771L33.8468 13.2318H27.071C26.9833 13.2318 26.896 13.2505 26.8116 13.2751L21.558 14.7874L16.1067 13.2964L10.8098 9.92771C10.4048 9.67022 9.87152 9.75752 9.57038 10.1309L0.670068 21.1553C0.350218 21.5515 0.403038 22.1299 0.788908 22.4619L5.45383 26.4764L9.63897 32.1163C8.41497 33.4203 8.43881 35.4769 9.71233 36.7508C10.2768 37.3149 10.9946 37.6336 11.733 37.7077C11.7073 37.875 11.6941 38.0448 11.6941 38.2172C11.6941 39.1071 12.0407 39.9437 12.6698 40.5728C13.2992 41.2022 14.1359 41.5488 15.0257 41.5488C15.0378 41.5488 15.0496 41.5481 15.0613 41.5477C15.0609 41.5705 15.0598 41.5928 15.0598 41.6156C15.0598 42.5054 15.4065 43.3421 16.0355 43.9715C16.6649 44.6006 17.5016 44.9472 18.3915 44.9472C18.5672 44.9472 18.741 44.9329 18.9116 44.9065C18.9838 45.6474 19.3033 46.3685 19.8696 46.9349C20.5189 47.5845 21.372 47.9091 22.2252 47.9091C23.0784 47.9091 23.9316 47.5845 24.5811 46.9349L25.0906 46.4254L25.3045 46.5978C25.9486 47.2217 26.7849 47.5335 27.6212 47.5335C28.4743 47.5335 29.3275 47.2089 29.9767 46.5593C30.6395 45.8965 30.9641 45.0217 30.9506 44.1513C31.8206 44.1645 32.6958 43.8402 33.3586 43.1778C34.0206 42.5153 34.3453 41.6413 34.3324 40.7712C35.2388 40.7855 36.0985 40.4374 36.7401 39.7959C37.4029 39.1331 37.7275 38.2583 37.7139 37.3879C38.5847 37.4011 39.4591 37.0769 40.1219 36.4141C41.2531 35.2829 41.3988 33.5343 40.5599 32.2436L43.6157 25.8437L48.2098 21.8904C48.5894 21.5636 48.6474 20.9972 48.3418 20.6007L48.3418 20.6007ZM10.5083 11.9704L14.3171 14.3924L6.03153 24.4866L2.71129 21.6289L10.5083 11.9704ZM11.0456 33.3722L12.1952 32.2227C12.23 32.1878 12.2667 32.1548 12.3041 32.124C12.529 31.9406 12.8011 31.8313 13.0894 31.8053C13.0975 31.8045 13.1059 31.8045 13.114 31.8042C13.1551 31.8009 13.1962 31.7987 13.2376 31.799C13.6316 31.8045 13.9976 31.9656 14.269 32.252C14.8016 32.8151 14.773 33.735 14.2052 34.3028L13.0905 35.4175C12.5268 35.9813 11.6094 35.9813 11.0456 35.4175C10.4819 34.8534 10.4819 33.936 11.0456 33.3722L11.0456 33.3722ZM14.0031 39.2395C13.7298 38.9666 13.5795 38.6035 13.5795 38.2172C13.5795 37.831 13.7298 37.4679 14.0031 37.1946L16.2321 34.9656C16.6591 34.5386 17.3303 34.4216 17.8761 34.6817C18.4388 34.9498 18.7553 35.5605 18.6728 36.1749C18.6288 36.5028 18.4762 36.8117 18.2422 37.0461L16.0484 39.2395C15.7751 39.5128 15.412 39.6632 15.0257 39.6632C14.6395 39.6632 14.2764 39.5128 14.0031 39.2395L14.0031 39.2395ZM17.3688 42.6379C17.0956 42.365 16.9452 42.0018 16.9452 41.6156C16.9452 41.2294 17.0956 40.8663 17.3688 40.593L19.5975 38.364C20.0541 37.9077 20.7866 37.8094 21.3456 38.1347C21.8562 38.4318 22.1236 39.015 22.0359 39.596C21.9879 39.9155 21.836 40.2159 21.6075 40.4444L19.4141 42.6379C19.1408 42.9111 18.7777 43.0615 18.3915 43.0615C18.0052 43.0615 17.6421 42.9111 17.3688 42.6379H17.3688ZM21.2026 45.6016C20.6388 45.0378 20.6388 44.1205 21.2026 43.5567L22.3521 42.4071C22.387 42.3723 22.4233 42.3397 22.4607 42.3089C22.4618 42.3081 22.4625 42.3074 22.4633 42.3067C22.6503 42.1548 22.87 42.0532 23.1044 42.0088C23.1099 42.0081 23.1154 42.0074 23.1209 42.0066C23.1613 41.9993 23.2024 41.9934 23.2434 41.9897C23.2599 41.9883 23.2764 41.9883 23.2933 41.9872C23.3271 41.9853 23.3604 41.9831 23.3946 41.9835C23.7881 41.989 24.1546 42.1496 24.426 42.4365C24.4594 42.4717 24.4905 42.5084 24.5192 42.5462C24.9527 43.1129 24.8944 43.9547 24.3563 44.4931L23.2475 45.6019C22.6837 46.1657 21.7664 46.1653 21.2026 45.6016V45.6016ZM38.7886 35.0808C38.2249 35.6449 37.3075 35.6445 36.7437 35.0808C36.7232 35.0602 36.7016 35.0412 36.6796 35.0232L30.6179 28.8977C30.2515 28.5276 29.6547 28.5247 29.2846 28.8911C28.9145 29.2571 28.9116 29.8539 29.2776 30.224L35.4049 36.4152C35.4057 36.4159 35.4064 36.4166 35.4072 36.4174C35.9709 36.9811 35.9709 37.8989 35.4072 38.4626C35.1339 38.7359 34.7708 38.8863 34.3845 38.8863C33.9979 38.8863 33.6348 38.7359 33.3619 38.4626L29.2629 34.3211C28.8969 33.951 28.3001 33.9481 27.93 34.3142C27.5599 34.6806 27.557 35.2774 27.923 35.6475L31.9593 39.7255C31.9798 39.7512 32.0018 39.7758 32.0253 39.7992C32.589 40.363 32.589 41.2807 32.0253 41.8445C31.4611 42.4083 30.5434 42.4079 29.9797 41.8441L27.7426 39.5836C27.3761 39.2135 26.7794 39.2101 26.4093 39.5766C26.0392 39.9426 26.0362 40.5394 26.4023 40.9095L28.577 43.1066C28.5976 43.1323 28.6196 43.1572 28.6434 43.1807C29.2072 43.7445 29.2072 44.6622 28.6434 45.226C28.0796 45.7901 27.1623 45.7897 26.5985 45.226C26.5336 45.161 26.4573 45.1112 26.3847 45.0554C26.3231 45.0085 26.3069 44.9758 26.3377 44.901C26.3689 44.8251 26.4155 44.7565 26.4467 44.6802C26.4811 44.5951 26.509 44.5074 26.5362 44.4194C26.6807 43.9536 26.7232 43.4525 26.6583 42.9691C26.5336 42.0414 26.0234 41.2044 25.2502 40.6748C24.8324 40.389 24.349 40.2016 23.8479 40.1312C24.0907 39.0601 23.7991 37.8989 23.0406 37.0974C22.4163 36.4379 21.573 36.0678 20.666 36.0553C20.6329 36.055 20.5999 36.055 20.5666 36.0553C20.5867 35.1897 20.272 34.3296 19.6752 33.699C19.0506 33.0395 18.2073 32.6694 17.3006 32.657C17.031 32.6533 16.7588 32.6819 16.4962 32.7424C16.384 31.9615 15.9904 31.2389 15.3944 30.7221C14.802 30.2093 14.057 29.9247 13.2636 29.9137C12.4284 29.9016 11.6079 30.2097 10.9877 30.7698L7.34355 25.8595L16.0616 15.2385L18.84 15.9985L15.2113 22.4017C14.7726 23.176 14.6619 24.0747 14.8992 24.9322C15.1365 25.7902 15.6933 26.5039 16.4676 26.9426C16.516 26.9702 16.5648 26.9962 16.6143 27.0211C16.618 27.023 16.6217 27.0248 16.6257 27.0266C16.7559 27.0916 16.8898 27.1473 17.0255 27.1943C17.6575 27.4132 18.3401 27.4371 18.9985 27.2551C19.8561 27.0178 20.5699 26.4607 21.0085 25.6867L23.3667 21.5254L27.5771 21.824L38.789 33.0355C39.3524 33.5996 39.3524 34.517 38.7886 35.0807L38.7886 35.0808ZM39.1793 30.7595L28.6614 20.242C28.6416 20.2218 28.6207 20.2028 28.599 20.1848C28.4475 20.0586 28.2597 19.9823 28.0617 19.9684L22.9063 19.6027C22.5498 19.5781 22.1955 19.7678 22.0194 20.0784L19.3682 24.7573C19.1779 25.0933 18.8679 25.335 18.4956 25.4381C18.1237 25.5411 17.7334 25.4927 17.3971 25.3024C17.0611 25.112 16.8194 24.802 16.7163 24.4297C16.6132 24.0575 16.6613 23.6672 16.852 23.3312L20.3912 17.085L21.8254 16.6724C21.8349 16.6694 21.8441 16.6658 21.8536 16.6628L27.2063 15.1172H33.6736L41.7476 25.3808L39.1793 30.7595ZM42.9826 23.9012L35.5161 14.4045L39.3267 11.981L46.3035 21.0435L42.9826 23.9012Z" fill="white"/>
<path fill-rule="evenodd" clip-rule="evenodd" d="M29.5877 11.4614C29.829 11.4614 30.0704 11.3693 30.2545 11.1852L36.694 4.74574C37.0623 4.37747 37.0623 3.78069 36.694 3.41243C36.3257 3.04417 35.7289 3.04417 35.3607 3.41243L28.9212 9.85191C28.5529 10.2202 28.5529 10.8169 28.9212 11.1852C29.1053 11.3693 29.3467 11.4614 29.5877 11.4614Z" fill="white"/>
<path fill-rule="evenodd" clip-rule="evenodd" d="M18.7445 11.1852C18.9286 11.3693 19.17 11.4614 19.4113 11.4614C19.6523 11.4614 19.8937 11.3693 20.0778 11.1852C20.4461 10.817 20.4461 10.2202 20.0778 9.85191L13.6383 3.41243C13.27 3.04417 12.6733 3.04417 12.305 3.41243C11.9367 3.78069 11.9367 4.37747 12.305 4.74574L18.7445 11.1852Z" fill="white"/>
<path fill-rule="evenodd" clip-rule="evenodd" d="M24.4998 11.4616C25.0203 11.4616 25.4424 11.0394 25.4424 10.5189V5.18974C25.4424 4.66925 25.0203 4.24707 24.4998 4.24707C23.9793 4.24707 23.5571 4.66925 23.5571 5.18974V10.5189C23.5571 11.0394 23.9793 11.4616 24.4998 11.4616Z" fill="white"/>
<path fill-rule="evenodd" clip-rule="evenodd" d="M23.6303 1.77282C23.78 2.13558 24.153 2.37363 24.5466 2.35309C24.9353 2.33292 25.2768 2.07029 25.3971 1.70019C25.5178 1.32716 25.3865 0.902042 25.074 0.664362C24.7553 0.421542 24.3107 0.407972 23.9773 0.628412C23.6053 0.874162 23.4612 1.36347 23.6303 1.77281L23.6303 1.77282Z" fill="white"/>
</svg>
