<svg width="43" height="51" viewBox="0 0 43 51" fill="none" xmlns="http://www.w3.org/2000/svg">
<path fill-rule="evenodd" clip-rule="evenodd" d="M29.5606 35.5886C29.4663 35.2985 29.21 35.091 28.9066 35.0592L24.4136 34.5896L22.5785 30.4617C22.4546 30.1829 22.1781 30.0032 21.873 30.0032C21.5679 30.0032 21.2914 30.1829 21.1675 30.4617L19.3324 34.5896L14.8394 35.0592C14.5362 35.0911 14.2801 35.2985 14.1859 35.5885C14.0916 35.8785 14.1768 36.1967 14.4034 36.4008L17.7622 39.4219L16.8206 43.84C16.757 44.1384 16.8751 44.4462 17.1219 44.6255C17.3688 44.8049 17.698 44.822 17.9622 44.6693L21.873 42.4089L25.7839 44.6697C26.0481 44.8224 26.3773 44.8053 26.6242 44.6259C26.871 44.4466 26.9891 44.1388 26.9255 43.8404L25.9839 39.4222L29.3427 36.4012C29.5695 36.1972 29.6548 35.8788 29.5605 35.5886L29.5606 35.5886ZM24.6193 38.5725C24.4139 38.7572 24.3228 39.0375 24.3804 39.3077L25.0532 42.4638L22.2591 40.8486C22.02 40.7104 21.7252 40.7104 21.4862 40.8486L18.6924 42.4636L19.3652 39.3075C19.4228 39.0373 19.3317 38.757 19.1263 38.5723L16.727 36.4143L19.9365 36.0789C20.2111 36.0501 20.4495 35.8769 20.5617 35.6245L21.873 32.6762L23.1839 35.6248C23.2961 35.8772 23.5345 36.0504 23.8091 36.0791L27.0186 36.4146L24.6193 38.5725ZM42.8259 41.024C42.7317 40.7338 42.4754 40.5263 42.1719 40.4945L37.6791 40.0248L35.8439 35.8971C35.7199 35.6183 35.4434 35.4387 35.1383 35.4387C34.8332 35.4387 34.5567 35.6183 34.4328 35.8971L32.5977 40.0248L28.1048 40.4945C27.8013 40.5263 27.5449 40.7337 27.4507 41.024C27.3564 41.3142 27.4419 41.6327 27.6688 41.8367L31.0276 44.8577L30.086 49.2758C30.0224 49.5742 30.1405 49.8821 30.3873 50.0614C30.6341 50.2408 30.9635 50.2579 31.2276 50.1052L35.1385 47.8444L39.0494 50.1052C39.3136 50.2579 39.6429 50.2408 39.8897 50.0614C40.1366 49.8821 40.2547 49.5742 40.191 49.2758L39.2494 44.8577L42.6082 41.8367C42.835 41.6326 42.9203 41.3141 42.8259 41.024H42.8259ZM37.8848 44.0078C37.6794 44.1925 37.5883 44.4728 37.6459 44.7429L38.3185 47.899L35.5248 46.2841C35.2857 46.1459 34.991 46.1459 34.7519 46.2841L31.9583 47.899L32.6308 44.7429C32.6884 44.4728 32.5973 44.1925 32.392 44.0078L29.9928 41.8502L33.2022 41.5147C33.4768 41.486 33.7152 41.3128 33.8274 41.0604L35.1383 38.1118L36.4492 41.0604C36.5614 41.3128 36.7998 41.486 37.0745 41.5148L40.2839 41.8502L37.8848 44.0078ZM1.5741 40.4946C1.27058 40.5262 1.0142 40.7337 0.919898 41.0239C0.825598 41.3142 0.911088 41.6327 1.13803 41.8367L4.49686 44.8577L3.55523 49.2758C3.49161 49.5742 3.60969 49.8821 3.85653 50.0614C4.10338 50.2408 4.43269 50.2579 4.69684 50.1052L8.60775 47.8444L12.5187 50.1052C12.7828 50.2579 13.1121 50.2408 13.359 50.0614C13.6058 49.8821 13.7239 49.5742 13.6603 49.2758L12.7185 44.8577L16.0774 41.8367C16.3043 41.6327 16.3898 41.3142 16.2955 41.0239C16.2012 40.7337 15.9448 40.5262 15.6413 40.4946L11.1484 40.0248L9.31329 35.8971C9.18936 35.6183 8.91284 35.4386 8.60769 35.4386C8.30254 35.4386 8.02602 35.6183 7.90209 35.8971L6.0669 40.0248L1.5741 40.4946ZM7.29676 41.06L8.60767 38.1114L9.91858 41.06C10.0307 41.3124 10.2692 41.4856 10.5438 41.5144L13.7532 41.8499L11.354 44.0078C11.1486 44.1925 11.0575 44.4728 11.1151 44.7429L11.7877 47.899L8.99403 46.2841C8.75496 46.1459 8.46029 46.1459 8.22121 46.2841L5.42749 47.8988L6.10022 44.7427C6.15778 44.4726 6.0667 44.1923 5.86134 44.0076L3.4621 41.8502L6.67142 41.5144C6.94612 41.4857 7.18457 41.3124 7.29676 41.06ZM16.8459 11.2086H8.67358C7.46236 11.2099 6.48082 12.1915 6.47943 13.4027V27.4131C6.48081 28.6243 7.46234 29.6059 8.67358 29.6073H16.8459C17.498 29.6066 18.0265 29.078 18.0272 28.4258L18.0272 28.1681C18.6483 28.472 19.3308 28.6293 20.0223 28.6279C20.1014 28.6279 20.1809 28.626 20.2609 28.622H31.3734C32.301 28.6112 33.1672 28.1571 33.7038 27.4005C34.2403 26.6438 34.3823 25.6761 34.0856 24.7972C34.9334 24.526 35.6264 23.9082 35.9928 23.097C36.3592 22.2858 36.3645 21.3574 36.0075 20.542C36.7596 19.9612 37.2187 19.0794 37.263 18.1301C37.3074 17.1808 36.9325 16.26 36.2378 15.6116C36.6939 14.6317 36.6873 13.499 36.2196 12.5245C35.752 11.5501 34.8725 10.8362 33.8227 10.579C33.7669 10.5654 33.7098 10.558 33.6523 10.557C31.5301 10.5204 30.1791 10.5152 28.3969 10.5372C29.6226 7.99721 29.5895 6.14243 28.293 3.74907C27.3808 2.06551 26.2163 1.09724 24.8313 0.872346C24.2721 0.800506 23.7079 0.776196 23.1446 0.799666C22.8628 0.812186 22.6011 0.948976 22.4299 1.1732C22.0161 1.70299 22.045 2.63632 22.5537 5.16779C22.5958 5.37762 22.6394 5.5945 22.6488 5.66524C22.9053 7.59753 21.3639 9.75326 20.0042 11.6551C19.8874 11.8185 19.7718 11.9805 19.6575 12.1413C19.2699 12.6879 19.0109 12.7552 18.4423 12.9027C18.3153 12.9357 18.1767 12.972 18.0273 13.0162V12.3899C18.0265 11.7378 17.498 11.2093 16.8459 11.2086L16.8459 11.2086ZM16.4829 28.063H8.67358C8.31482 28.0626 8.0241 27.7718 8.02372 27.4131V13.4027C8.02409 13.044 8.31483 12.7532 8.67358 12.7528H16.4829V28.063ZM18.8302 14.3975C19.5052 14.2222 20.2033 14.0404 20.9169 13.0347C21.0298 12.8755 21.1442 12.7151 21.2601 12.5534C22.7865 10.4187 24.5164 7.99925 24.1796 5.46208C24.1635 5.34047 24.1253 5.15081 24.0676 4.86367C23.8226 3.64407 23.6939 2.79818 23.6831 2.33692C23.9842 2.33776 24.285 2.35775 24.5836 2.39676C25.4716 2.54096 26.263 3.24332 26.9352 4.48464C27.8637 6.1988 28.1395 7.58576 26.9399 10.0011C26.7164 10.4509 26.7432 10.9846 27.0106 11.4098C27.2781 11.8349 27.7475 12.0901 28.2497 12.0834C30.0718 12.0595 31.4155 12.0633 33.5326 12.0994C34.1903 12.2877 34.7123 12.7893 34.9266 13.4391C35.1409 14.0889 35.0197 14.8026 34.603 15.3452C34.4658 15.5238 34.4134 15.7534 34.4596 15.9738C34.5058 16.1942 34.6459 16.3835 34.8432 16.492C35.4182 16.8084 35.7592 17.4278 35.7191 18.0828C35.679 18.7378 35.2649 19.311 34.6557 19.5548C34.4257 19.6468 34.2539 19.8435 34.1936 20.0837C34.1334 20.324 34.192 20.5785 34.3513 20.7682C34.7813 21.2804 34.8489 22.0055 34.5209 22.5885C34.193 23.1714 33.5382 23.4901 32.8771 23.3885C32.5396 23.3367 32.208 23.5128 32.0619 23.8215C31.9159 24.1302 31.99 24.4983 32.2442 24.7264C32.6569 25.0968 32.8007 25.6821 32.6066 26.2015C32.4126 26.721 31.9203 27.0687 31.3659 27.0778H20.2411C20.2273 27.0778 20.2136 27.0778 20.1998 27.0789C19.413 27.1216 18.6999 26.8829 18.0273 26.352V14.6514C18.2884 14.5475 18.5568 14.4627 18.8302 14.3975L18.8302 14.3975Z" fill="white"/>
</svg>
