<svg width="43" height="43" viewBox="0 0 43 43" fill="none" xmlns="http://www.w3.org/2000/svg">
<path fill-rule="evenodd" clip-rule="evenodd" d="M13.643 32.2241C13.4182 31.9695 13.0296 31.9453 12.7748 32.1701C12.5203 32.3948 12.4961 32.7835 12.7208 33.0382L14.7071 35.2882V41.7512C14.7071 42.0908 14.9823 42.3662 15.3221 42.3662C15.6618 42.3662 15.9371 42.0908 15.9371 41.7512V35.0555C15.9371 34.9056 15.8823 34.7609 15.7832 34.6486L13.643 32.2241Z" fill="white"/>
<path fill-rule="evenodd" clip-rule="evenodd" d="M9.30183 27.3062C7.58684 25.3634 7.20594 22.5997 8.33142 20.2655L9.16234 18.5422C9.30986 18.2362 9.18137 17.8686 8.87541 17.7211C8.56963 17.5736 8.20186 17.702 8.05433 18.008L7.22341 19.7314C5.88243 22.5126 6.33632 25.8055 8.37964 28.1203L10.9494 31.0315C11.0709 31.1692 11.2404 31.2396 11.4107 31.2396C11.5554 31.2396 11.7005 31.1888 11.8175 31.0857C12.0721 30.8609 12.0963 30.4723 11.8716 30.2176L9.30183 27.3062Z" fill="white"/>
<path fill-rule="evenodd" clip-rule="evenodd" d="M29.8688 10.3373C29.0775 10.3373 28.3587 10.6515 27.8289 11.1609C27.3402 10.2093 26.3486 9.55654 25.2072 9.55654C24.3996 9.55654 23.6676 9.88405 23.135 10.4123C22.636 9.4934 21.6626 8.86805 20.5454 8.86805C19.7409 8.86805 19.0109 9.19253 18.4787 9.71718C17.9809 8.79343 17.0045 8.16406 15.8836 8.16406C14.2592 8.16406 12.9378 9.4856 12.9378 11.11V13.6879C11.5284 13.6299 10.1381 14.2875 9.2982 15.5313C9.10821 15.8128 9.18226 16.1951 9.46377 16.3851C9.74528 16.5751 10.1275 16.5011 10.3177 16.2196C11.1707 14.9561 12.829 14.5481 14.1744 15.2704L21.5552 19.2327C21.9294 19.4336 22.167 19.8223 22.1751 20.247C22.1836 20.6902 21.9463 21.0961 21.5557 21.306L20.5875 21.8265C19.2124 22.5658 17.5574 22.5912 16.1603 21.8947L13.9227 20.7791C13.6185 20.6275 13.2494 20.7513 13.0978 21.0552C12.9462 21.3592 13.0698 21.7284 13.3738 21.8799L15.6113 22.9955C16.46 23.4186 17.384 23.6294 18.3077 23.6294C19.2935 23.6294 20.2786 23.3891 21.1699 22.91L21.2437 22.8703L22.4704 24.347C23.031 25.0218 23.3397 25.8766 23.3397 26.754V30.2956C23.3397 30.6353 23.615 30.9106 23.9548 30.9106C24.2945 30.9106 24.5698 30.6353 24.5698 30.2956V26.754C24.5698 25.5902 24.1602 24.4562 23.4166 23.561L22.3408 22.266C23.0176 21.8125 23.4208 21.0505 23.4049 20.2237C23.3982 19.8777 23.3161 19.5439 23.1725 19.2408C23.7016 19.7475 24.4183 20.0596 25.2071 20.0596C26.0254 20.0596 26.7658 19.7234 27.3 19.1828C27.8053 20.0808 28.7671 20.6891 29.8688 20.6891C30.3378 20.6891 30.7811 20.5784 31.1751 20.3827V21.849C31.1751 22.1887 31.4504 22.464 31.7901 22.464C32.1299 22.464 32.4051 22.1887 32.4051 21.849V19.2392C32.6649 18.8004 32.8147 18.2891 32.8147 17.7432V13.2834C32.8147 11.6588 31.4931 10.3373 29.8688 10.3373H29.8688ZM14.1678 13.9265V11.11C14.1678 10.1639 14.9375 9.39409 15.8836 9.39409C16.8297 9.39409 17.5995 10.1638 17.5995 11.11V15.713L14.7562 14.1866C14.5641 14.0835 14.3673 13.9975 14.1678 13.9265H14.1678ZM18.8295 16.3733V11.814C18.8295 10.8679 19.5993 10.0982 20.5454 10.0982C21.4915 10.0982 22.2613 10.8679 22.2613 11.814V17.1135C22.2613 17.4535 22.1595 17.7829 21.9745 18.0617L18.8295 16.3733ZM25.2071 18.8294C24.261 18.8294 23.4912 18.0596 23.4912 17.1135V12.5025C23.4912 11.5563 24.261 10.7867 25.2071 10.7867C26.1532 10.7867 26.9229 11.5564 26.9229 12.5025V17.1135C26.9229 18.0596 26.1532 18.8294 25.2071 18.8294ZM29.8688 19.4589C28.9227 19.4589 28.153 18.6892 28.153 17.743V13.2832C28.153 12.3371 28.9227 11.5674 29.8688 11.5674C30.815 11.5674 31.5847 12.3371 31.5847 13.2832V17.743C31.5847 18.6892 30.815 19.4589 29.8688 19.4589Z" fill="white"/>
<path fill-rule="evenodd" clip-rule="evenodd" d="M31.7896 23.855C31.4499 23.855 31.1746 24.1303 31.1746 24.47V30.0437C31.1746 30.9664 30.9282 31.875 30.4619 32.6712L29.5298 34.2634C29.3937 34.4958 29.3218 34.761 29.3218 35.0305V41.7512C29.3218 42.0908 29.5971 42.3662 29.9368 42.3662C30.2765 42.3662 30.5518 42.0908 30.5518 41.7512V35.0305C30.5518 34.9794 30.5654 34.9291 30.5913 34.885L31.5233 33.2928C32.0999 32.3082 32.4046 31.1847 32.4046 30.0438V24.4701C32.4046 24.1303 32.1294 23.855 31.7896 23.855Z" fill="white"/>
<path fill-rule="evenodd" clip-rule="evenodd" d="M28.3902 6.53225C28.4932 6.59851 28.6084 6.63016 28.7224 6.63016C28.9246 6.63016 29.1227 6.53053 29.2401 6.34791L32.3065 1.58295C32.4904 1.29734 32.4078 0.916769 32.1222 0.732919C31.8366 0.549149 31.456 0.631569 31.2722 0.917339L28.2058 5.6823C28.022 5.96791 28.1046 6.3484 28.3902 6.53225H28.3902Z" fill="white"/>
<path fill-rule="evenodd" clip-rule="evenodd" d="M34.7067 10.6552C34.8192 10.7435 34.953 10.7864 35.0858 10.7864C35.2683 10.7864 35.4489 10.7055 35.5701 10.5509L42.3877 1.8596C42.5974 1.59236 42.5506 1.20572 42.2834 0.996117C42.0163 0.786517 41.6296 0.833177 41.42 1.10043L34.6023 9.79171C34.3927 10.059 34.4394 10.4456 34.7067 10.6552Z" fill="white"/>
<path fill-rule="evenodd" clip-rule="evenodd" d="M41.6051 16.7947L38.8694 18.316C38.5727 18.4811 38.4658 18.8556 38.6308 19.1524C38.7433 19.3547 38.9529 19.4686 39.1689 19.4686C39.2701 19.4686 39.3726 19.4436 39.4673 19.391L42.203 17.8697C42.4997 17.7046 42.6066 17.3301 42.4416 17.0333C42.2764 16.7364 41.9019 16.6296 41.6051 16.7947V16.7947Z" fill="white"/>
<path fill-rule="evenodd" clip-rule="evenodd" d="M42.1386 28.1472L39.4861 26.5465C39.1955 26.3712 38.8173 26.4644 38.6418 26.7553C38.4662 27.0461 38.5598 27.4241 38.8506 27.5996L41.5031 29.2003C41.6025 29.2602 41.7121 29.2888 41.8203 29.2888C42.0287 29.2888 42.2319 29.1829 42.3475 28.9915C42.5229 28.7007 42.4295 28.3227 42.1386 28.1472V28.1472Z" fill="white"/>
<path fill-rule="evenodd" clip-rule="evenodd" d="M34.7877 32.2074C34.5672 31.9493 34.179 31.9187 33.9206 32.1394C33.6624 32.36 33.6318 32.7482 33.8526 33.0065L34.8385 34.1603C34.9601 34.3027 35.1326 34.3758 35.3064 34.3758C35.4477 34.3758 35.5897 34.3274 35.7055 34.2284C35.9638 34.0077 35.9943 33.6195 35.7736 33.3613L34.7877 32.2074Z" fill="white"/>
<path fill-rule="evenodd" clip-rule="evenodd" d="M37.5284 35.4145C37.3079 35.1563 36.9197 35.1257 36.6613 35.3464C36.4031 35.5671 36.3726 35.9553 36.5933 36.2135L40.0265 40.2317C40.1481 40.374 40.3207 40.4471 40.4944 40.4471C40.6357 40.4471 40.7777 40.3987 40.8936 40.2997C41.1518 40.079 41.1824 39.6909 40.9617 39.4326L37.5284 35.4145Z" fill="white"/>
<path fill-rule="evenodd" clip-rule="evenodd" d="M23.656 4.88807C23.7203 4.90947 23.7858 4.91964 23.8501 4.91964C24.1078 4.91964 24.3478 4.75637 24.4336 4.49848L25.1125 2.45614C25.2197 2.13379 25.0453 1.78569 24.7229 1.67852C24.4004 1.57143 24.0524 1.74584 23.9453 2.06811L23.2664 4.11045C23.1593 4.4328 23.3337 4.78089 23.656 4.88807Z" fill="white"/>
<path fill-rule="evenodd" clip-rule="evenodd" d="M13.757 6.34783C13.8746 6.53053 14.0725 6.63008 14.2747 6.63008C14.3887 6.63008 14.5039 6.59843 14.6069 6.53217C14.8926 6.34832 14.9751 5.96784 14.7913 5.68214L11.725 0.917263C11.5412 0.631653 11.1607 0.549153 10.875 0.732843C10.5894 0.916694 10.5069 1.29718 10.6907 1.58287L13.757 6.34783Z" fill="white"/>
<path fill-rule="evenodd" clip-rule="evenodd" d="M7.5945 10.5542C7.71586 10.7068 7.89512 10.7864 8.0761 10.7864C8.21034 10.7864 8.34548 10.7426 8.45864 10.6526C8.72441 10.4411 8.76844 10.0541 8.55688 9.78833L1.57533 1.01505C1.36385 0.749284 0.976959 0.705254 0.711109 0.916734C0.445259 1.12821 0.401309 1.51518 0.612869 1.78095L7.5945 10.5542Z" fill="white"/>
<path fill-rule="evenodd" clip-rule="evenodd" d="M3.70806 19.3981C3.79925 19.4459 3.89699 19.4686 3.99326 19.4686C4.21458 19.4686 4.42853 19.3488 4.53841 19.1392C4.69618 18.8384 4.58031 18.4666 4.27953 18.3089L1.37987 16.7876C1.07917 16.6298 0.707367 16.7456 0.549517 17.0464C0.391747 17.3472 0.507617 17.719 0.808397 17.8768L3.70806 19.3981Z" fill="white"/>
<path fill-rule="evenodd" clip-rule="evenodd" d="M4.52034 26.7553C4.34477 26.4646 3.96683 26.3711 3.67597 26.5465L1.02346 28.1472C0.732604 28.3227 0.639124 28.7007 0.814604 28.9915C0.930144 29.1829 1.13342 29.2888 1.34179 29.2888C1.44995 29.2888 1.55959 29.2603 1.65897 29.2003L4.31148 27.5996C4.60234 27.4241 4.69574 27.0461 4.52034 26.7553Z" fill="white"/>
<path fill-rule="evenodd" clip-rule="evenodd" d="M9.24162 32.1394C8.9834 31.9187 8.59512 31.9492 8.37454 32.2075L7.38863 33.3613C7.16804 33.6195 7.19847 34.0077 7.45669 34.2284C7.57256 34.3274 7.71458 34.3759 7.85588 34.3759C8.02956 34.3759 8.20217 34.3027 8.32378 34.1603L9.3097 33.0065C9.53036 32.7483 9.49986 32.36 9.24163 32.1394L9.24162 32.1394Z" fill="white"/>
<path fill-rule="evenodd" clip-rule="evenodd" d="M6.50098 35.3464C6.24268 35.1257 5.8544 35.1564 5.63389 35.4145L2.20064 39.4327C1.98006 39.6909 2.01048 40.0791 2.2687 40.2997C2.38457 40.3988 2.52659 40.4472 2.66788 40.4472C2.84156 40.4472 3.01417 40.3741 3.13578 40.2317L6.56903 36.2135C6.78969 35.9552 6.75927 35.5671 6.50097 35.3464L6.50098 35.3464Z" fill="white"/>
<path fill-rule="evenodd" clip-rule="evenodd" d="M18.5645 4.49849C18.6503 4.75647 18.8904 4.91965 19.148 4.91965C19.2123 4.91965 19.2777 4.90948 19.3421 4.88808C19.6645 4.7809 19.8389 4.43281 19.7317 4.11046L19.0528 2.06812C18.9456 1.74577 18.5975 1.57143 18.2752 1.67853C17.9528 1.78571 17.7784 2.1338 17.8856 2.45615L18.5645 4.49849Z" fill="white"/>
</svg>
