<svg width="43" height="43" viewBox="0 0 43 43" fill="none" xmlns="http://www.w3.org/2000/svg">
<path fill-rule="evenodd" clip-rule="evenodd" d="M29.2485 26.9175C29.1156 26.5486 28.7088 26.3574 28.34 26.4903C27.9711 26.6232 27.7799 27.03 27.9128 27.3988C27.9161 27.4079 27.9196 27.4168 27.9232 27.4258C28.5706 29.1154 28.6175 30.4075 28.051 30.9754C27.3638 31.6612 25.6522 31.4468 23.4713 30.4032C20.5516 28.8872 17.8977 26.9067 15.6132 24.5393C10.0524 18.9778 7.758 13.5206 9.17712 12.1015C9.62996 11.7439 10.2186 11.6065 10.7829 11.7267C11.1739 11.7554 11.5142 11.4617 11.543 11.0707C11.5708 10.6928 11.2968 10.3597 10.9207 10.314C9.93363 10.1393 8.92093 10.4271 8.1733 11.0949C5.57216 13.6953 9.54841 20.4785 14.6094 25.5403C17.0072 28.0216 19.7935 30.0955 22.8587 31.6803C23.4137 31.9461 23.9857 32.175 24.571 32.3654L19.527 34.2779C12.7917 31.7173 7.94301 25.7461 6.81948 18.6285C6.75869 18.2412 6.39539 17.9764 6.00804 18.0371C5.62069 18.0979 5.35589 18.4612 5.41668 18.8486C5.52814 19.5585 5.67722 20.2684 5.85967 20.9627C7.49443 27.1567 11.8002 32.3022 17.6088 35.0035L9.30703 38.1449C9.26896 38.0813 9.22104 38.0244 9.16505 37.9759C7.05517 36.282 5.73135 33.7977 5.50187 31.1018L5.17247 27.1127C5.14656 26.7263 4.81219 26.434 4.42564 26.4599C4.41827 26.4604 4.41091 26.4609 4.40363 26.4617C4.01282 26.4928 3.72113 26.8349 3.75219 27.2257C3.75228 27.2273 3.75246 27.229 3.75263 27.2306L4.08771 31.2182C4.33725 34.0998 5.68148 36.7762 7.84389 38.6972L1.92176 40.9391L2.98664 36.5688C3.07955 36.1877 2.84599 35.8035 2.46485 35.7106C2.08371 35.6176 1.69947 35.8512 1.60656 36.2324L0.221508 41.9117C0.128158 42.2925 0.361188 42.6769 0.742058 42.7702C0.881738 42.8044 1.02842 42.7954 1.16286 42.7444L27.4298 32.8056C27.4716 32.7852 27.5111 32.7604 27.5477 32.7317C28.1161 32.6444 28.6432 32.3816 29.0548 31.9799C29.7583 31.2764 30.3638 29.826 29.2485 26.9175H29.2485Z" fill="white"/>
<path fill-rule="evenodd" clip-rule="evenodd" d="M35.9476 25.0868C32.1099 23.6501 27.9619 23.2473 23.9195 23.9189L21.3829 24.3449C20.9979 24.4189 20.7458 24.791 20.8198 25.176C20.8913 25.548 21.2423 25.7984 21.6172 25.7448L24.153 25.3225C27.9495 24.6913 31.8452 25.0698 35.4492 26.42C35.5292 26.4483 35.6136 26.4625 35.6984 26.4619C36.0905 26.4625 36.4089 26.1453 36.4095 25.7531C36.41 25.4563 36.2258 25.1905 35.9476 25.0868H35.9476Z" fill="white"/>
<path fill-rule="evenodd" clip-rule="evenodd" d="M38.4715 14.0878C38.3029 13.7337 37.8792 13.5834 37.5252 13.752L22.6169 20.8512C22.2629 21.0197 22.1125 21.4433 22.281 21.7973C22.281 21.7974 22.2811 21.7975 22.2811 21.7975C22.4496 22.1515 22.8731 22.3019 23.2272 22.1334C23.2273 22.1334 23.2273 22.1333 23.2274 22.1333L38.1357 15.0341C38.4897 14.8655 38.64 14.4419 38.4715 14.0878Z" fill="white"/>
<path fill-rule="evenodd" clip-rule="evenodd" d="M17.4428 5.01257C17.3647 4.62833 16.99 4.38012 16.6057 4.45821C16.2215 4.5363 15.9733 4.91105 16.0514 5.29529C16.053 5.30381 16.055 5.31224 16.057 5.32067C16.9556 9.33517 16.5853 13.5297 14.9971 17.3247L13.9649 19.8016C13.8157 20.1625 13.986 20.5761 14.3461 20.7273C14.4324 20.7636 14.5251 20.7822 14.6187 20.782C14.9053 20.782 15.1637 20.6098 15.274 20.3454L16.3069 17.8713C18.0085 13.8062 18.4055 9.31298 17.4428 5.01256V5.01257Z" fill="white"/>
<path fill-rule="evenodd" clip-rule="evenodd" d="M39.2487 25.7517C38.0724 25.7517 37.1189 26.7052 37.1189 27.8815C37.1189 29.0577 38.0724 30.0112 39.2487 30.0112C40.4249 30.0112 41.3784 29.0577 41.3784 27.8815C41.3784 26.7052 40.4249 25.7517 39.2487 25.7517ZM39.2487 28.5914C38.8566 28.5914 38.5388 28.2735 38.5388 27.8815C38.5388 27.4894 38.8566 27.1715 39.2487 27.1715C39.6407 27.1715 39.9586 27.4894 39.9586 27.8815C39.9586 28.2735 39.6407 28.5914 39.2487 28.5914Z" fill="white"/>
<path fill-rule="evenodd" clip-rule="evenodd" d="M22.2105 5.87378C21.0343 5.87378 20.0808 6.82729 20.0808 8.00353C20.0808 9.17978 21.0343 10.1333 22.2105 10.1333C23.3868 10.1333 24.3403 9.17977 24.3403 8.00353C24.3403 6.82728 23.3868 5.87378 22.2105 5.87378ZM22.2105 8.71345C21.8185 8.71345 21.5006 8.39559 21.5006 8.00353C21.5006 7.61148 21.8185 7.29361 22.2105 7.29361C22.6026 7.29361 22.9205 7.61147 22.9205 8.00353C22.9205 8.39558 22.6026 8.71345 22.2105 8.71345Z" fill="white"/>
<path fill-rule="evenodd" clip-rule="evenodd" d="M15.8207 3.0345C16.6049 3.0345 17.2406 2.39881 17.2406 1.61466C17.2406 0.830506 16.6049 0.194824 15.8207 0.194824C15.0366 0.194824 14.4009 0.830506 14.4009 1.61466C14.4009 2.39881 15.0366 3.0345 15.8207 3.0345Z" fill="white"/>
<path fill-rule="evenodd" clip-rule="evenodd" d="M35.6989 3.74487C35.3069 3.74487 34.989 4.06274 34.989 4.45479V5.16471C34.989 5.55676 35.3069 5.87463 35.6989 5.87463C36.091 5.87463 36.4089 5.55677 36.4089 5.16471V4.45479C36.4089 4.06274 36.091 3.74487 35.6989 3.74487Z" fill="white"/>
<path fill-rule="evenodd" clip-rule="evenodd" d="M35.6989 0.194824C35.3069 0.194824 34.989 0.512694 34.989 0.904744V1.61466C34.989 2.00671 35.3069 2.32458 35.6989 2.32458C36.091 2.32458 36.4089 2.00671 36.4089 1.61466V0.904744C36.4089 0.512694 36.091 0.194824 35.6989 0.194824Z" fill="white"/>
<path fill-rule="evenodd" clip-rule="evenodd" d="M37.8288 2.32471H37.1189C36.7268 2.32471 36.4089 2.64258 36.4089 3.03463C36.4089 3.42668 36.7268 3.74455 37.1189 3.74455H37.8288C38.2208 3.74455 38.5387 3.42669 38.5387 3.03463C38.5387 2.64258 38.2208 2.32471 37.8288 2.32471Z" fill="white"/>
<path fill-rule="evenodd" clip-rule="evenodd" d="M34.2787 2.32471H33.5688C33.1768 2.32471 32.8589 2.64258 32.8589 3.03463C32.8589 3.42668 33.1768 3.74455 33.5688 3.74455H34.2787C34.6708 3.74455 34.9886 3.42669 34.9886 3.03463C34.9886 2.64258 34.6708 2.32471 34.2787 2.32471Z" fill="white"/>
<path fill-rule="evenodd" clip-rule="evenodd" d="M30.7292 7.98877H27.1647C26.7727 7.98877 26.4548 8.30663 26.4548 8.69869V12.2632C26.4548 12.6552 26.7727 12.9731 27.1647 12.9731H30.7292C31.1213 12.9731 31.4392 12.6552 31.4392 12.2632V8.69869C31.4392 8.30664 31.1213 7.98877 30.7292 7.98877ZM30.0193 11.5533H27.8747V9.40861H30.0193V11.5533Z" fill="white"/>
<path fill-rule="evenodd" clip-rule="evenodd" d="M25.5575 13.9175C25.2969 13.6393 24.8632 13.6165 24.5749 13.866L17.4758 20.2553C17.1845 20.5176 17.161 20.9663 17.4232 21.2577C17.6855 21.5489 18.1343 21.5724 18.4256 21.3102L25.5248 14.9209C25.811 14.6528 25.8256 14.2037 25.5576 13.9175L25.5575 13.9175Z" fill="white"/>
<path fill-rule="evenodd" clip-rule="evenodd" d="M38.5388 16.5227C38.1467 16.5227 37.8289 16.8406 37.8289 17.2326V17.9425C37.8289 18.3346 38.1467 18.6525 38.5388 18.6525C38.9308 18.6525 39.2487 18.3346 39.2487 17.9425V17.2326C39.2487 16.8406 38.9308 16.5227 38.5388 16.5227Z" fill="white"/>
<path fill-rule="evenodd" clip-rule="evenodd" d="M41.551 16.4009L41.0491 15.899C40.767 15.6266 40.3177 15.6344 40.0452 15.9164C39.7795 16.1915 39.7795 16.6277 40.0452 16.9029L40.5471 17.4048C40.8291 17.6772 41.2786 17.6694 41.551 17.3874C41.8168 17.1122 41.8168 16.676 41.551 16.401V16.4009Z" fill="white"/>
<path fill-rule="evenodd" clip-rule="evenodd" d="M42.0878 13.6829H41.3779C40.9858 13.6829 40.668 14.0007 40.668 14.3928C40.668 14.7848 40.9858 15.1027 41.3779 15.1027H42.0878C42.4799 15.1027 42.7978 14.7848 42.7978 14.3928C42.7978 14.0007 42.4799 13.6829 42.0878 13.6829Z" fill="white"/>
<path fill-rule="evenodd" clip-rule="evenodd" d="M41.5331 11.3821C41.258 11.1164 40.8219 11.1164 40.5467 11.3821L40.0448 11.884C39.7676 12.1613 39.7676 12.6108 40.045 12.888C40.1781 13.0211 40.3586 13.0959 40.5467 13.0959C40.735 13.0959 40.9155 13.021 41.0486 12.8879L41.5505 12.3859C41.823 12.1039 41.8151 11.6545 41.5331 11.3821Z" fill="white"/>
<path fill-rule="evenodd" clip-rule="evenodd" d="M38.5388 10.1338C38.1467 10.1338 37.8289 10.4517 37.8289 10.8437V11.5536C37.8289 11.9457 38.1467 12.2636 38.5388 12.2636C38.9308 12.2636 39.2487 11.9457 39.2487 11.5536V10.8437C39.2487 10.4517 38.9308 10.1338 38.5388 10.1338Z" fill="white"/>
<path fill-rule="evenodd" clip-rule="evenodd" d="M37.0319 11.8841L36.53 11.3822C36.248 11.1098 35.7986 11.1175 35.5262 11.3996C35.2605 11.6746 35.2605 12.1108 35.5262 12.386L36.0281 12.8879C36.3101 13.1603 36.7595 13.1525 37.0319 12.8705C37.2977 12.5953 37.2977 12.1592 37.0319 11.8841L37.0319 11.8841Z" fill="white"/>
<path fill-rule="evenodd" clip-rule="evenodd" d="M8.68702 3.26446C8.60343 3.00765 8.38131 2.82058 8.11412 2.78172L6.03051 2.47859L5.10123 0.590924C4.89411 0.239244 4.44109 0.122024 4.08942 0.329144C3.98134 0.392774 3.89126 0.482844 3.82764 0.590924L2.8941 2.47859L0.810485 2.78172C0.422425 2.83771 0.153275 3.19773 0.209275 3.58579C0.231545 3.74029 0.304135 3.88307 0.415775 3.99213L1.92294 5.46166L1.56798 7.53675C1.49983 7.92286 1.75753 8.29113 2.14363 8.35928C2.2991 8.3867 2.45919 8.36159 2.59878 8.28784L4.46231 7.30531L6.32584 8.285C6.6729 8.46745 7.10214 8.33407 7.28458 7.98701C7.35726 7.84884 7.38228 7.69062 7.35593 7.53674L7.00097 5.46165L8.50883 3.99212C8.70185 3.80319 8.77089 3.52118 8.68703 3.26445L8.68702 3.26446ZM5.74015 4.70559C5.57296 4.86843 5.49656 5.10306 5.53569 5.33316L5.71175 6.35899L4.79241 5.87412C4.58574 5.76559 4.33886 5.76559 4.13219 5.87412L3.2093 6.35828L3.38536 5.33245C3.4252 5.10324 3.35013 4.86896 3.18445 4.70559L2.43833 3.97934L3.46842 3.82955C3.69968 3.79601 3.89961 3.65074 4.00299 3.44122L4.46231 2.5091L4.92234 3.44122C5.02563 3.65056 5.22521 3.79574 5.4562 3.82955L6.48558 3.97934L5.74015 4.70559Z" fill="white"/>
<path fill-rule="evenodd" clip-rule="evenodd" d="M40.3999 35.7793H40.397L40.1046 35.3406C38.4645 32.8881 35.8857 31.2205 32.9763 30.7311C32.5881 30.6757 32.2286 30.9455 32.1732 31.3336C32.1197 31.7086 32.37 32.0596 32.742 32.131C34.8405 32.4872 36.7529 33.5533 38.1594 35.151C36.9769 35.3637 35.9428 36.0739 35.3197 37.1012C34.5551 38.4705 35.0454 40.2003 36.4147 40.9649C37.7841 41.7295 39.5139 41.2392 40.2785 39.8699C40.5705 39.3061 40.7282 38.6823 40.7392 38.0475C41.4946 39.1446 41.555 40.5773 40.8947 41.7341C40.6947 42.0713 40.8058 42.5068 41.1431 42.7068C41.4803 42.9069 41.9158 42.7957 42.1158 42.4585C42.1223 42.4476 42.1284 42.4368 42.1342 42.4256C43.4341 40.1038 42.6685 37.1699 40.3999 35.7793ZM39.0404 39.177C38.6614 39.8636 37.7978 40.1129 37.1113 39.734C36.4248 39.3551 36.1754 38.4914 36.5543 37.8049C36.5564 37.8011 36.5585 37.7972 36.5607 37.7933C36.9796 37.1074 37.6862 36.6475 38.4831 36.5425C38.6065 36.5391 38.7288 36.5675 38.8381 36.6248C39.4372 36.9592 39.4692 38.4089 39.0404 39.177L39.0404 39.177Z" fill="white"/>
</svg>
