<svg width="42" height="46" viewBox="0 0 42 46" fill="none" xmlns="http://www.w3.org/2000/svg">
<path fill-rule="evenodd" clip-rule="evenodd" d="M40.4528 23.8393C38.3731 21.7688 35.9687 23.7067 35.9687 23.7067V12.8073C35.9687 12.4413 35.6721 12.1443 35.3061 12.1443C34.9397 12.1443 34.6431 12.4412 34.6431 12.8073V24.6393C34.6431 24.6393 31.4819 27.1313 30.1232 27.7405V8.11568C30.1232 7.2034 30.8652 6.46135 31.7775 6.46135H32.9888C33.9011 6.46135 34.6431 7.2034 34.6431 8.11568V10.0932C34.6431 10.4596 34.9397 10.7562 35.3061 10.7562C35.6721 10.7562 35.9687 10.4596 35.9687 10.0932V8.11568C35.9687 6.4724 34.6321 5.13574 32.9888 5.13574H31.7775C30.1342 5.13574 28.7972 6.47239 28.7972 8.11568V28.266C28.4018 28.3768 27.9961 28.4521 27.5838 28.4918V14.5151C27.5838 12.8636 26.2403 11.52 24.589 11.52H23.4071C21.7559 11.52 20.4123 12.8636 20.4123 14.5151V21.2699L19.1986 21.9142V19.6663C19.1986 18.1794 17.989 16.9699 16.5025 16.9699H14.7235C13.2366 16.9699 12.0274 18.1794 12.0274 19.6663V25.7208L9.86269 26.8696L3.78403 28.6068C2.72638 28.9089 1.8431 29.6016 1.29753 30.5567C0.751615 31.5122 0.603485 32.6247 0.880415 33.6893L1.56031 36.3053C1.65216 36.6596 2.01403 36.8719 2.36866 36.7801C2.72294 36.6879 2.93565 36.326 2.84346 35.9714L2.16356 33.3557C1.76923 31.8385 2.64111 30.3122 4.14869 29.8817L9.7063 28.2933L13.8834 39.4416C14.1631 40.1882 14.1189 42.318 11.9093 43.1028L7.70942 44.0569C6.2457 44.3891 4.80338 43.5117 4.42562 42.0586L3.57309 38.7779C3.48089 38.4237 3.11901 38.211 2.76473 38.3028C2.41012 38.395 2.19775 38.7569 2.28961 39.1115L3.14249 42.3925C3.62177 44.2357 5.25918 45.4536 7.08203 45.4536C8.42144 45.4536 12.2032 44.3956 12.2032 44.3956C13.354 44.1346 14.3354 43.3887 14.8951 42.3501C15.3571 41.493 15.4942 40.5069 15.296 39.5673L29.8262 36.01C31.0279 35.7155 32.1687 35.1447 33.1245 34.3591L40.1956 28.5491C42.3513 26.6372 41.0868 24.4701 40.4528 23.8392L40.4528 23.8393ZM23.4071 12.8459H24.589C25.5093 12.8459 26.2579 13.5949 26.2579 14.5151V28.525L22.0746 28.5232C21.6902 28.5198 21.9561 28.266 21.9772 28.2487L23.1819 27.2729C24.3059 26.3624 25.04 25.0965 25.3635 23.5098C25.569 22.5033 25.185 21.4957 24.3622 20.8804C23.5935 20.3058 22.6049 20.1953 21.7382 20.5751V14.5151C21.7382 13.5949 22.4868 12.846 23.4071 12.846L23.4071 12.8459ZM13.3533 19.6663C13.3533 18.9108 13.968 18.2958 14.7235 18.2958H16.5025C17.258 18.2958 17.873 18.9108 17.873 19.6663V22.6179L13.353 25.0171V19.6663H13.3533ZM39.3541 27.525L32.2827 33.335C31.4795 33.9952 30.5209 34.4748 29.5109 34.7221L14.8737 38.3059L10.9373 27.8009L22.1768 21.8348C22.6336 21.592 23.154 21.6324 23.568 21.9422C23.982 22.2519 24.1678 22.7388 24.0645 23.245C23.8038 24.5222 23.2261 25.5309 22.3473 26.2425L21.1426 27.2187C20.6488 27.6186 20.4668 28.2639 20.6788 28.863C20.8909 29.4618 21.4385 29.8492 22.0739 29.8492L26.9043 29.8513H26.9077C28.6273 29.8513 30.2799 29.3285 31.6867 28.3392L37.0851 24.543C37.8409 24.0112 38.8585 24.1051 39.5042 24.766C39.8761 25.1459 40.604 26.2746 39.354 27.525L39.3541 27.525Z" fill="white"/>
<path fill-rule="evenodd" clip-rule="evenodd" d="M11.3438 39.8661C11.3438 38.4258 10.1722 37.2539 8.73197 37.2539C7.29172 37.2539 6.12012 38.4258 6.12012 39.8661C6.12012 41.306 7.29172 42.478 8.73197 42.478C10.1722 42.478 11.3438 41.306 11.3438 39.8661ZM7.44607 39.8661C7.44607 39.1569 8.02272 38.5799 8.73197 38.5799C9.44087 38.5799 10.0179 39.1569 10.0179 39.8661C10.0179 40.575 9.44121 41.152 8.73197 41.152C8.02273 41.152 7.44607 40.575 7.44607 39.8661Z" fill="white"/>
<path fill-rule="evenodd" clip-rule="evenodd" d="M3.9649 21.0105L13.6022 11.299L15.77 12.4202C16.5466 12.8217 17.4917 12.6843 18.1215 12.078L23.3673 7.0283C23.3673 7.0283 23.223 9.62185 25.407 9.62185C26.5313 9.62185 27.4463 8.70681 27.4463 7.58216V2.23416C27.4463 2.22794 27.446 2.22138 27.446 2.21482C27.4387 0.819464 26.4184 0.194824 25.407 0.194824H20.1056C18.981 0.194824 18.0663 1.10986 18.0663 2.23416C18.0663 4.47585 20.3477 4.2735 20.3477 4.2735L16.3456 8.12566L14.1464 6.98824C13.3512 6.57664 12.393 6.72754 11.7618 7.36289L1.06991 18.1373C0.277793 18.9356 0.282633 20.2295 1.08096 21.0216C1.46562 21.4031 2.77914 22.1963 3.9649 21.0105ZM2.01085 19.0713L12.7027 8.29692C12.8408 8.15811 13.0625 7.91502 13.5373 8.16605L16.1585 9.5217C16.4109 9.65222 16.7182 9.60768 16.923 9.41051L22.4519 4.0884C22.6467 3.9009 22.7081 3.61361 22.6069 3.36293C22.5058 3.1119 22.2627 2.94788 21.992 2.94788H20.1056C19.7123 2.94788 19.3922 2.62779 19.3922 2.23415C19.3922 1.84085 19.7123 1.52076 20.1056 1.52076H25.407C25.6021 1.52076 26.12 1.52076 26.12 2.23001C26.12 2.23588 26.1204 2.24175 26.1204 2.24797V7.58216C26.1204 7.97546 25.8003 8.29555 25.407 8.29555C25.0133 8.29555 24.6932 7.97546 24.6932 7.58216V5.46996C24.6932 5.20408 24.5344 4.96375 24.2899 4.85982C24.0455 4.75554 23.7623 4.80802 23.5707 4.99242L17.202 11.1229C16.9817 11.3349 16.6509 11.3832 16.3795 11.2427L13.7794 9.89775C13.5221 9.76481 13.2082 9.81419 13.0042 10.0196L3.02395 20.0765C2.58887 20.5116 2.14931 20.2139 2.01464 20.0803C1.73564 19.803 1.73391 19.3503 2.01084 19.0713L2.01085 19.0713Z" fill="white"/>
</svg>
