<svg width="44" height="45" viewBox="0 0 44 45" fill="none" xmlns="http://www.w3.org/2000/svg">
<path fill-rule="evenodd" clip-rule="evenodd" d="M30.7151 17.2535C30.7151 12.493 26.8541 8.63208 22.0936 8.63208C17.3331 8.63208 13.4722 12.493 13.4722 17.2535C13.4722 22.0141 17.3331 25.875 22.0936 25.875C26.8542 25.875 30.7151 22.0141 30.7151 17.2535ZM15.7212 17.2535C15.7212 13.73 18.5701 10.8812 22.0936 10.8812C25.6172 10.8812 28.466 13.73 28.466 17.2535C28.466 20.7771 25.6172 23.6259 22.0936 23.6259C18.5701 23.6259 15.7212 20.7771 15.7212 17.2535Z" fill="white"/>
<path fill-rule="evenodd" clip-rule="evenodd" d="M12.9847 32.8089C13.2846 33.3337 13.9968 33.5211 14.5216 33.1838C16.8081 31.8343 19.432 31.1221 22.0934 31.1221C25.7669 31.1221 29.2905 32.4716 31.9894 34.9081C32.2143 35.0955 32.4767 35.2079 32.739 35.2079C33.0389 35.2079 33.3388 35.0955 33.5637 34.8331C33.976 34.3833 33.9385 33.6711 33.4887 33.2587C30.3775 30.4099 26.3292 28.873 22.0934 28.873C19.0197 28.873 15.9834 29.6977 13.3595 31.2721C12.8347 31.5719 12.6473 32.2841 12.9847 32.8089L12.9847 32.8089Z" fill="white"/>
<path fill-rule="evenodd" clip-rule="evenodd" d="M6.72421 7.13283C0.351842 13.4677 -1.44742 22.9138 2.1511 31.1604C2.33852 31.5727 2.75085 31.8351 3.20067 31.8351C3.35061 31.8351 3.50055 31.7977 3.65049 31.7602C4.21276 31.4978 4.47515 30.8605 4.25024 30.2983C0.989092 22.8763 2.60092 14.4048 8.29857 8.70717C15.3082 1.69756 26.4036 1.17277 34.0505 7.09533L32.0638 7.32024C31.464 7.39521 31.0142 7.95748 31.0892 8.55723C31.1641 9.1195 31.6514 9.53183 32.2137 9.53183H32.3637L36.8618 9.00705C37.4616 8.93208 37.8739 8.4073 37.8364 7.80754V7.73257C37.8364 7.69508 37.8364 7.62012 37.8364 7.58263L37.6115 3.57178C37.574 2.93454 37.0492 2.48473 36.412 2.52221C35.7748 2.5597 35.3249 3.08448 35.3624 3.72172L35.4374 5.25859C26.8534 -1.30121 14.521 -0.701452 6.72423 7.13282L6.72421 7.13283Z" fill="white"/>
<path fill-rule="evenodd" clip-rule="evenodd" d="M10.1358 37.9071L12.1225 37.6822C12.7223 37.6072 13.1721 37.045 13.0971 36.4452C13.0221 35.8455 12.4599 35.3956 11.8601 35.4706L7.36197 35.9954C6.76222 36.0704 6.34989 36.5951 6.38737 37.1949V37.2699V37.4198L6.61228 41.4306C6.64976 42.0304 7.13706 42.4802 7.73681 42.4802H7.81178C8.44902 42.4427 8.89883 41.9179 8.86135 41.2807L8.78638 39.7438C12.6848 42.7051 17.4078 44.242 22.0934 44.242C27.6786 44.242 33.2263 42.1054 37.4621 37.8696C43.8719 31.4598 45.6337 22.0137 41.9977 13.7296C41.7353 13.1673 41.0981 12.9049 40.4983 13.1673C39.936 13.4297 39.6737 14.0669 39.936 14.6667C43.1972 22.0886 41.6228 30.5976 35.8877 36.3328C28.8781 43.3049 17.7827 43.8297 10.1358 37.9071L10.1358 37.9071Z" fill="white"/>
</svg>
