<svg width="51" height="42" viewBox="0 0 51 42" fill="none" xmlns="http://www.w3.org/2000/svg">
<path fill-rule="evenodd" clip-rule="evenodd" d="M45.8539 4.86168C45.6741 4.68195 45.4271 4.57996 45.1742 4.57996C44.9205 4.57996 44.6734 4.68195 44.4936 4.86168C44.3149 5.04038 44.2129 5.28751 44.2129 5.54127C44.2129 5.79407 44.3149 6.04216 44.4936 6.22094C44.6733 6.39973 44.9204 6.50259 45.1742 6.50259C45.427 6.50259 45.6741 6.39984 45.8539 6.22094C46.0327 6.04216 46.1346 5.79417 46.1346 5.54127C46.1346 5.28751 46.0327 5.04038 45.8539 4.86168Z" fill="white"/>
<path fill-rule="evenodd" clip-rule="evenodd" d="M23.7762 27.5007C23.5966 27.321 23.3495 27.219 23.0966 27.219C22.8428 27.219 22.5957 27.321 22.4159 27.5007C22.2372 27.6794 22.1353 27.9266 22.1353 28.1803C22.1353 28.4331 22.2372 28.6812 22.4159 28.86C22.5957 29.0388 22.8427 29.1416 23.0966 29.1416C23.3494 29.1416 23.5965 29.0389 23.7762 28.86C23.955 28.6812 24.0569 28.4332 24.0569 28.1803C24.057 27.9266 23.9551 27.6794 23.7762 27.5007Z" fill="white"/>
<path fill-rule="evenodd" clip-rule="evenodd" d="M48.1825 8.0545C47.9201 7.59293 47.3329 7.43163 46.8717 7.69405C46.4102 7.95646 46.2488 8.54338 46.5113 9.00486C49.3667 14.0261 48.5047 20.3894 44.4149 24.4791L43.686 25.208C43.5099 24.7459 43.2371 24.3125 42.8654 23.9409L32.9883 14.0639C33.6342 13.7461 34.231 13.3221 34.755 12.7981L36.6494 10.9037C37.0247 10.5283 37.0247 9.91956 36.6494 9.5442C36.2739 9.16885 35.6654 9.16885 35.2898 9.5442L33.3954 11.4387C32.5054 12.3286 31.3223 12.8187 30.0638 12.8187H26.2768C26.0219 12.8187 25.7775 12.92 25.5971 13.1002L22.698 15.9993C21.8372 16.8602 20.4364 16.8602 19.5755 15.9993C18.7146 15.1384 18.7146 13.7376 19.5755 12.8768L26.1941 6.25827C30.2388 2.21346 36.5533 1.32395 41.5493 4.09514C42.0135 4.35246 42.5987 4.18511 42.8563 3.72075C43.1138 3.25648 42.9461 2.67129 42.4818 2.41378C39.7262 0.885542 36.4796 0.273912 33.3395 0.692142C30.4009 1.08345 27.7111 2.31391 25.5062 4.26634C22.7976 1.86512 19.3494 0.552002 15.6987 0.552002C11.7437 0.552002 8.02549 2.09216 5.22882 4.88873C2.43215 7.6853 0.89209 11.4038 0.89209 15.3587C0.89209 19.3138 2.43225 23.0319 5.22882 25.8286L5.5911 26.1909C5.65416 26.2539 5.72413 26.3054 5.79805 26.3472C5.86236 27.1788 6.2108 27.9924 6.84549 28.627C7.55189 29.3333 8.47927 29.6863 9.40695 29.6863C9.45511 29.6863 9.50336 29.6847 9.55152 29.6828C9.5496 29.7315 9.54796 29.7801 9.54796 29.829C9.54796 30.7966 9.92476 31.7063 10.6089 32.3905C11.3153 33.0968 12.2427 33.4498 13.1704 33.4497C13.2186 33.4497 13.2668 33.4482 13.315 33.4463C13.3131 33.4949 13.3114 33.5435 13.3114 33.5925C13.3114 34.56 13.6882 35.4697 14.3725 36.1539C15.0788 36.8601 16.0064 37.2132 16.934 37.2132C16.9827 37.2132 17.0314 37.2117 17.0802 37.2097C17.0411 38.1855 17.3927 39.1742 18.136 39.9176C18.8203 40.6018 19.73 40.9786 20.6974 40.9786C21.6651 40.9786 22.5748 40.6018 23.2589 39.9176L24.6024 38.574L26.4171 40.3885C27.1013 41.0728 28.011 41.4496 28.9785 41.4496C29.9461 41.4496 30.8558 41.0728 31.54 40.3886C32.2922 39.6363 32.6437 38.6327 32.5947 37.6455C32.655 37.6485 32.7156 37.6503 32.776 37.6503C33.7037 37.6503 34.6315 37.2972 35.3377 36.5909C36.0806 35.848 36.4321 34.86 36.3935 33.8848C36.4421 33.8867 36.4908 33.8883 36.5397 33.8883C37.5072 33.8883 38.417 33.5115 39.1011 32.8273C39.8441 32.0844 40.1956 31.0965 40.1569 30.1212C40.2056 30.1231 40.2542 30.1248 40.3032 30.1248C41.2707 30.1248 42.1804 29.748 42.8646 29.0638C43.2121 28.7163 43.4737 28.3149 43.6502 27.8865C43.7437 27.8409 43.8317 27.7803 43.9095 27.7026L45.7736 25.8384C50.4741 21.1389 51.4644 13.8258 48.1825 8.0545ZM9.40706 27.7654C8.95298 27.7654 8.5261 27.5886 8.20496 27.2675C7.88391 26.9464 7.70705 26.5195 7.70705 26.0655C7.70705 25.6115 7.88382 25.1845 8.20496 24.8635L9.86153 23.2069C10.1826 22.8858 10.6095 22.709 11.0636 22.709C11.5176 22.709 11.9446 22.8858 12.2656 23.2069C12.9285 23.8697 12.9285 24.9481 12.2656 25.6109L10.6091 27.2676C10.288 27.5885 9.86123 27.7654 9.40706 27.7654ZM11.9687 31.0311C11.6476 30.7101 11.4708 30.2831 11.4708 29.8291C11.4708 29.375 11.6476 28.9481 11.9687 28.6271L13.6254 26.9704C13.6254 26.9704 13.6254 26.9704 13.6254 26.9704C13.9464 26.6493 14.3733 26.4724 14.8274 26.4724C15.2813 26.4724 15.7083 26.6492 16.0294 26.9704C16.6922 27.6332 16.6922 28.7116 16.0294 29.3744L14.3728 31.031C13.7098 31.6938 12.6312 31.6938 11.9687 31.0311L11.9687 31.0311ZM15.7322 34.7946C15.411 34.4735 15.2343 34.0466 15.2343 33.5926C15.2343 33.1385 15.411 32.7116 15.7322 32.3906L17.3888 30.7339C17.3888 30.7339 17.3888 30.7339 17.3888 30.7338C17.7099 30.4128 18.1367 30.2359 18.5908 30.2359C19.0449 30.2359 19.4718 30.4127 19.7928 30.7338C20.4557 31.3968 20.4557 32.4752 19.7928 33.1379L18.1362 34.7946C17.4734 35.4574 16.395 35.4574 15.7322 34.7946V34.7946ZM23.5564 36.9016L21.8997 38.5583C21.5787 38.8794 21.1518 39.0562 20.6977 39.0562C20.2437 39.0562 19.8168 38.8795 19.4957 38.5583C18.8329 37.8954 18.8329 36.817 19.4957 36.1542L21.1524 34.4975C21.1524 34.4975 21.1524 34.4975 21.1524 34.4974C21.4734 34.1764 21.9003 33.9995 22.3544 33.9995C22.8084 33.9995 23.2353 34.1763 23.5564 34.4974C23.8775 34.8185 24.0543 35.2455 24.0543 35.6995C24.0544 36.1537 23.8775 36.5805 23.5564 36.9016V36.9016ZM41.5058 27.7043C41.1848 28.0255 40.7578 28.2022 40.3038 28.2022C39.8497 28.2022 39.4229 28.0255 39.1018 27.7043L35.1006 23.7031C35.1004 23.7029 35.1003 23.7028 35.1001 23.7026L31.3369 19.9394C30.9614 19.5641 30.3529 19.5641 29.9773 19.9394C29.602 20.3148 29.602 20.9235 29.9773 21.2989L37.7423 29.0636C38.4051 29.7266 38.4051 30.805 37.7423 31.4677C37.4212 31.7889 36.9943 31.9656 36.5403 31.9656C36.0862 31.9656 35.6593 31.7889 35.3383 31.4677L27.5733 23.7029C27.1979 23.3276 26.5893 23.3276 26.2138 23.7029C25.8384 24.0782 25.8384 24.687 26.2138 25.0624L29.9766 28.8251C29.9769 28.8254 29.9772 28.8258 29.9775 28.8261L33.9788 32.8273C34.6417 33.4902 34.6417 34.5687 33.9789 35.2315C33.3159 35.8943 32.2374 35.8943 31.5748 35.2315L27.5734 31.2301C27.4994 31.1562 27.4163 31.0974 27.3278 31.0526L26.1865 29.9113C25.811 29.5361 25.2025 29.5361 24.8269 29.9113C24.4516 30.2867 24.4516 30.8954 24.8269 31.2709L30.1811 36.6249C30.844 37.2878 30.844 38.3662 30.1811 39.029C29.8601 39.3501 29.4331 39.5269 28.9791 39.5269C28.525 39.5269 28.0982 39.3501 27.7771 39.029L25.7397 36.9917C25.8949 36.5844 25.977 36.1483 25.977 35.6994C25.977 34.7318 25.6002 33.8221 24.916 33.1379C24.2318 32.4537 23.3221 32.0769 22.3546 32.0769C22.3057 32.0769 22.257 32.0786 22.2084 32.0805C22.2469 31.1053 21.8955 30.1173 21.1526 29.3744C20.4683 28.6902 19.5586 28.3134 18.5911 28.3134C18.5422 28.3134 18.4936 28.315 18.4449 28.317C18.4836 27.3417 18.132 26.3538 17.3891 25.6108C16.7048 24.9266 15.7951 24.5498 14.8277 24.5498C14.7787 24.5498 14.7301 24.5515 14.6815 24.5534C14.7201 23.5781 14.3686 22.5902 13.6257 21.8473C12.2132 20.4349 9.91488 20.435 8.50247 21.8473L6.8459 23.5038C6.63693 23.7128 6.45978 23.9415 6.31252 24.1835C4.05452 21.7852 2.81512 18.6673 2.81512 15.3586C2.81512 11.9171 4.15525 8.68154 6.58887 6.24812C9.02229 3.8147 12.2579 2.47447 15.6993 2.47447C18.8267 2.47447 21.784 3.58141 24.1238 5.60978L18.2164 11.5171C17.4363 12.2974 17.0067 13.3346 17.0067 14.4379C17.0067 15.5413 17.4363 16.5785 18.2164 17.3588C19.0218 18.164 20.0796 18.5666 21.1373 18.5666C22.195 18.5666 23.2529 18.1641 24.0582 17.3588L26.6758 14.7412H30.0644C30.3442 14.7412 30.6209 14.7221 30.8943 14.6881L41.5064 25.3001C42.1686 25.9632 42.1686 27.0417 41.5058 27.7044L41.5058 27.7043Z" fill="white"/>
</svg>
